<svg width="153" height="25" viewBox="0 0 163 35" fill="none" xmlns="http://www.w3.org/2000/svg">
<path d="M40.6341 28H36.7421V8.148H49.2861V11.816H40.6061V16.716H48.3341V20.272H40.6341V28ZM55.8184 23.996C56.509 24.6867 57.3397 25.032 58.3104 25.032C59.281 25.032 60.1024 24.6867 60.7744 23.996C61.465 23.3053 61.8104 22.344 61.8104 21.112C61.8104 19.88 61.465 18.9187 60.7744 18.228C60.1024 17.5373 59.281 17.192 58.3104 17.192C57.3397 17.192 56.509 17.5373 55.8184 18.228C55.1464 18.9187 54.8104 19.88 54.8104 21.112C54.8104 22.344 55.1464 23.3053 55.8184 23.996ZM53.1304 15.876C54.5117 14.4947 56.2384 13.804 58.3104 13.804C60.3824 13.804 62.0997 14.4947 63.4624 15.876C64.8437 17.2573 65.5344 19.0027 65.5344 21.112C65.5344 23.2213 64.8437 24.9667 63.4624 26.348C62.0997 27.7293 60.3824 28.42 58.3104 28.42C56.2384 28.42 54.5117 27.7293 53.1304 26.348C51.7677 24.9667 51.0864 23.2213 51.0864 21.112C51.0864 19.0027 51.7677 17.2573 53.1304 15.876ZM77.7139 14.168V17.92C77.3406 17.8453 76.9673 17.808 76.5939 17.808C75.5299 17.808 74.6713 18.116 74.0179 18.732C73.3646 19.3293 73.0379 20.3187 73.0379 21.7V28H69.3139V14.224H72.9259V16.268C73.5979 14.8307 74.9046 14.112 76.8459 14.112C77.0513 14.112 77.3406 14.1307 77.7139 14.168ZM84.8975 28H81.1735V14.224H84.7295V15.904C85.0841 15.2693 85.6441 14.7653 86.4095 14.392C87.1748 14.0187 87.9588 13.832 88.7615 13.832C90.7588 13.832 92.1215 14.5973 92.8495 16.128C93.8388 14.5973 95.2948 13.832 97.2175 13.832C98.6175 13.832 99.7935 14.2707 100.745 15.148C101.716 16.0253 102.201 17.332 102.201 19.068V28H98.5895V19.824C98.5895 19.04 98.3841 18.4147 97.9735 17.948C97.5815 17.4627 96.9748 17.22 96.1535 17.22C95.3881 17.22 94.7721 17.4813 94.3055 18.004C93.8388 18.5267 93.6055 19.1707 93.6055 19.936V28H89.9095V19.824C89.9095 19.04 89.7041 18.4147 89.2935 17.948C88.8828 17.4627 88.2761 17.22 87.4735 17.22C86.6895 17.22 86.0641 17.4813 85.5975 18.004C85.1308 18.508 84.8975 19.152 84.8975 19.936V28ZM110.538 20.076V28H106.814V14.224H110.426V15.932C110.818 15.26 111.378 14.7467 112.106 14.392C112.834 14.0373 113.6 13.86 114.402 13.86C116.026 13.86 117.258 14.3733 118.098 15.4C118.957 16.408 119.386 17.7147 119.386 19.32V28H115.662V19.964C115.662 19.1427 115.448 18.48 115.018 17.976C114.608 17.472 113.973 17.22 113.114 17.22C112.33 17.22 111.705 17.4907 111.238 18.032C110.772 18.5733 110.538 19.2547 110.538 20.076ZM126.722 19.544H132.882C132.844 18.7787 132.564 18.1347 132.042 17.612C131.538 17.0893 130.791 16.828 129.802 16.828C128.906 16.828 128.178 17.108 127.618 17.668C127.058 18.228 126.759 18.8533 126.722 19.544ZM133.246 23.128L136.354 24.052C135.98 25.3213 135.243 26.3667 134.142 27.188C133.059 28.0093 131.706 28.42 130.082 28.42C128.103 28.42 126.423 27.7573 125.042 26.432C123.66 25.088 122.97 23.296 122.97 21.056C122.97 18.928 123.642 17.192 124.986 15.848C126.33 14.4853 127.916 13.804 129.746 13.804C131.874 13.804 133.535 14.4387 134.73 15.708C135.943 16.9773 136.55 18.7227 136.55 20.944C136.55 21.0933 136.54 21.2613 136.522 21.448C136.522 21.6347 136.522 21.784 136.522 21.896L136.494 22.092H126.638C126.675 22.988 127.03 23.7347 127.702 24.332C128.374 24.9293 129.176 25.228 130.11 25.228C131.696 25.228 132.742 24.528 133.246 23.128ZM139.146 24.164L142.338 23.464C142.376 24.0613 142.609 24.5653 143.038 24.976C143.486 25.368 144.093 25.564 144.858 25.564C145.437 25.564 145.885 25.4333 146.202 25.172C146.52 24.9107 146.678 24.584 146.678 24.192C146.678 23.5013 146.184 23.0533 145.194 22.848L143.374 22.428C142.086 22.148 141.116 21.644 140.462 20.916C139.828 20.188 139.51 19.32 139.51 18.312C139.51 17.0613 139.996 15.9973 140.966 15.12C141.956 14.2427 143.188 13.804 144.662 13.804C145.596 13.804 146.417 13.944 147.126 14.224C147.836 14.4853 148.386 14.8307 148.778 15.26C149.17 15.6707 149.469 16.0907 149.674 16.52C149.88 16.9493 150.01 17.3693 150.066 17.78L146.958 18.48C146.884 17.9947 146.66 17.5653 146.286 17.192C145.932 16.8187 145.4 16.632 144.69 16.632C144.205 16.632 143.785 16.7627 143.43 17.024C143.094 17.2853 142.926 17.612 142.926 18.004C142.926 18.676 143.346 19.0867 144.186 19.236L146.146 19.656C147.472 19.936 148.48 20.4493 149.17 21.196C149.88 21.9427 150.234 22.8387 150.234 23.884C150.234 25.116 149.768 26.18 148.834 27.076C147.901 27.972 146.585 28.42 144.886 28.42C143.916 28.42 143.048 28.28 142.282 28C141.517 27.7013 140.92 27.328 140.49 26.88C140.08 26.4133 139.762 25.956 139.538 25.508C139.333 25.0413 139.202 24.5933 139.146 24.164ZM158.661 10.108V14.224H161.433V17.528H158.661V23.296C158.661 23.8747 158.791 24.2853 159.053 24.528C159.314 24.7707 159.725 24.892 160.285 24.892C160.789 24.892 161.171 24.8547 161.433 24.78V27.86C160.891 28.084 160.191 28.196 159.333 28.196C157.989 28.196 156.925 27.8227 156.141 27.076C155.357 26.3107 154.965 25.2653 154.965 23.94V17.528H152.473V14.224H153.173C153.863 14.224 154.386 14.028 154.741 13.636C155.114 13.2253 155.301 12.6933 155.301 12.04V10.108H158.661Z" fill="black"/>
<circle cx="12" cy="17" r="12" fill="#275563"/>
<line x1="10" y1="22" x2="10" y2="12" stroke="#FBFBFD" stroke-width="2" stroke-linecap="round"/>
<line x1="15" y1="12" x2="10" y2="12" stroke="#FBFBFD" stroke-width="2" stroke-linecap="round"/>
<line x1="15" y1="17" x2="10" y2="17" stroke="#FBFBFD" stroke-width="2" stroke-linecap="round"/>
</svg>
